<?xml version="1.0" standalone="no"?>
<!DOCTYPE svg PUBLIC "-//W3C//DTD SVG 20010904//EN"
 "http://www.w3.org/TR/2001/REC-SVG-20010904/DTD/svg10.dtd">
<svg version="1.0" xmlns="http://www.w3.org/2000/svg"
 width="288.000000pt" height="288.000000pt" viewBox="0 0 288.000000 288.000000"
 preserveAspectRatio="xMidYMid meet">
<metadata>
Created by potrace 1.14, written by Peter Selinger 2001-2017
</metadata>
<g transform="translate(0.000000,288.000000) scale(0.100000,-0.100000)"
fill="#000000" stroke="none">
<path d="M0 1440 l0 -1440 1440 0 1440 0 0 1440 0 1440 -1440 0 -1440 0 0
-1440z m820 610 c16 10 43 -7 34 -21 -3 -5 2 -23 10 -41 8 -18 14 -51 15 -73
0 -22 5 -41 11 -43 5 -2 10 -8 10 -13 0 -6 9 -19 20 -31 11 -12 20 -32 20 -45
0 -14 4 -22 9 -18 5 3 13 0 17 -6 5 -8 3 -9 -6 -4 -10 6 -12 0 -7 -31 4 -21 7
-51 7 -66 0 -16 11 -37 27 -52 24 -22 25 -26 10 -40 -8 -9 -18 -16 -22 -16 -3
0 -18 -13 -32 -30 -13 -16 -33 -30 -43 -30 -10 0 -21 -7 -24 -16 -4 -9 -9 -14
-13 -11 -9 9 -53 -53 -53 -74 0 -26 -15 -31 -32 -11 -20 22 -72 128 -88 178
-6 21 -18 53 -26 71 -14 32 -47 135 -58 185 -10 43 -17 201 -10 231 8 39 42
35 35 -5 0 -5 6 -8 14 -8 8 0 14 3 13 8 -2 4 2 7 7 7 6 0 9 -3 8 -7 -2 -5 6
-8 16 -8 11 0 35 -15 54 -33 28 -26 38 -30 53 -22 11 5 21 11 23 12 2 1 -6 14
-18 29 -11 15 -21 36 -21 48 1 21 1 21 13 -1 9 -16 16 -20 27 -13z m1530 20
c0 -5 -2 -10 -4 -10 -3 0 -8 5 -11 10 -3 6 -1 10 4 10 6 0 11 -4 11 -10z
m-1318 -232 c10 -12 21 -32 24 -45 4 -13 10 -23 15 -23 15 0 42 -67 35 -85 -5
-13 -9 -15 -20 -6 -11 9 -17 8 -29 -3 -13 -13 -16 -13 -29 2 -26 31 -37 67
-40 125 -3 64 10 74 44 35z m183 -305 c-5 -34 -4 -35 6 -15 18 33 32 27 27
-13 -4 -31 -2 -33 12 -20 24 22 76 30 86 14 5 -8 9 -53 10 -101 1 -47 4 -90 7
-95 2 -4 5 -28 4 -52 0 -26 6 -49 14 -55 23 -19 38 -53 32 -74 -4 -15 7 -34
42 -69 26 -26 51 -58 56 -70 5 -15 14 -21 24 -17 13 5 14 2 6 -19 -7 -19 -6
-41 5 -78 8 -28 13 -53 11 -56 -3 -2 1 -20 9 -38 22 -55 16 -62 -17 -22 -30
37 -59 49 -59 24 0 -7 5 -18 11 -24 7 -7 7 -13 0 -17 -17 -11 -52 35 -44 58 4
12 7 31 6 44 -1 27 -43 92 -59 92 -15 0 -26 -28 -17 -43 4 -6 0 -8 -10 -4 -14
5 -15 3 -4 -20 9 -20 9 -27 0 -30 -7 -3 -9 -11 -6 -19 3 -7 9 -11 14 -8 5 3 9
-1 9 -8 0 -14 56 -68 70 -68 12 0 20 -28 14 -44 -4 -11 4 -17 29 -21 30 -6 38
-15 66 -71 17 -35 47 -80 66 -101 18 -20 40 -48 47 -62 16 -31 40 -56 67 -71
25 -13 27 -47 5 -79 -16 -23 -16 -24 6 -41 16 -12 21 -23 16 -35 -3 -10 -1
-24 6 -33 7 -8 13 -37 13 -64 l0 -48 -36 0 c-47 0 -98 21 -133 57 -43 42 -86
114 -86 143 0 40 -20 57 -81 70 -31 6 -64 19 -73 29 -23 25 -11 68 25 90 36
22 72 68 60 76 -32 19 -121 -30 -121 -67 0 -12 -7 -18 -22 -18 -29 0 -35 5
-79 60 -20 25 -47 56 -59 70 -16 18 -20 32 -16 54 4 17 10 33 16 36 15 9 56
74 63 99 4 17 -4 33 -31 63 -39 43 -83 67 -142 77 -22 4 -38 14 -44 27 -5 12
-18 27 -28 33 -15 9 -20 8 -24 -6 -4 -10 -17 -42 -30 -72 -39 -87 -25 -145 27
-113 21 13 49 15 73 6 28 -11 17 -21 -39 -34 -64 -15 -106 -54 -94 -86 13 -32
10 -44 -11 -44 -11 0 -27 11 -36 25 -20 30 -16 149 12 335 24 164 23 225 -4
270 -12 19 -22 41 -22 48 0 15 62 16 77 1 8 -8 17 -8 31 0 12 6 31 9 44 7 13
-3 26 -5 31 -5 4 -1 7 -28 7 -61 0 -48 4 -61 19 -70 29 -15 32 6 9 64 -10 26
-16 56 -13 66 4 12 -1 19 -15 23 -24 6 -26 34 -3 59 23 25 37 23 67 -13 46
-54 77 -20 51 57 -4 13 -1 26 8 35 8 8 20 38 26 67 15 60 24 69 16 15z m1215
-54 c0 -11 -4 -17 -10 -14 -5 3 -10 13 -10 21 0 8 5 14 10 14 6 0 10 -9 10
-21z m-1490 -29 c0 -11 -2 -20 -4 -20 -2 0 -11 -3 -20 -6 -19 -7 -22 16 -4 34
18 18 28 15 28 -8z m90 -20 c0 -12 -35 -31 -44 -23 -11 11 -6 21 12 26 29 8
32 7 32 -3z m670 -460 c0 -5 -4 -10 -10 -10 -5 0 -10 5 -10 10 0 6 5 10 10 10
6 0 10 -4 10 -10z m52 -7 c12 -10 33 -30 47 -45 14 -16 31 -28 37 -28 23 0 23
-30 1 -50 -15 -15 -29 -19 -47 -15 -14 4 -26 7 -26 8 -45 55 -67 121 -47 140
9 10 10 9 35 -10z m151 -150 c4 -3 0 -15 -10 -25 -14 -16 -14 -18 0 -18 10 0
13 -6 10 -21 -4 -14 -8 -17 -13 -9 -4 7 -13 9 -19 6 -6 -4 -11 0 -11 10 0 13
-3 14 -14 5 -10 -9 -15 -8 -19 3 -4 9 5 23 21 35 28 21 44 25 55 14z m-727
-136 c-9 -19 -16 -40 -16 -46 0 -6 -7 -11 -16 -11 -13 0 -15 7 -11 36 7 42 36
79 50 65 6 -6 4 -22 -7 -44z m610 -424 c-10 -10 -19 5 -10 18 6 11 8 11 12 0
2 -7 1 -15 -2 -18z"/>
<path d="M966 1243 c-3 -10 -8 -36 -11 -58 -5 -43 -14 -90 -21 -116 -6 -23 41
-31 59 -10 18 20 30 157 16 183 -12 23 -36 23 -43 1z"/>
<path d="M1491 371 c-8 -5 -9 -11 -3 -15 5 -3 12 1 16 9 6 17 6 18 -13 6z"/>
</g>
</svg>
